<mxfile host="app.diagrams.net" modified="2023-04-25T03:14:02.055Z" agent="Mozilla/5.0 (Macintosh; Intel Mac OS X 10_15_7) AppleWebKit/537.36 (KHTML, like Gecko) Chrome/112.0.0.0 Safari/537.36 Edg/112.0.1722.58" etag="vfFUF8fBN7kUryqjYcGh" version="21.2.1" type="device">
  <diagram name="Page-1" id="PvxEXtanMBis9T8CwfYS">
    <mxGraphModel dx="851" dy="662" grid="1" gridSize="10" guides="1" tooltips="1" connect="1" arrows="1" fold="1" page="1" pageScale="1" pageWidth="850" pageHeight="1100" math="0" shadow="0">
      <root>
        <mxCell id="0" />
        <mxCell id="1" parent="0" />
        <mxCell id="BF623RvJxD7XDJiJDWkn-1" value="&lt;font style=&quot;font-size: 24px;&quot;&gt;Online Ticketing System&lt;/font&gt;" style="text;html=1;strokeColor=none;fillColor=none;align=center;verticalAlign=middle;whiteSpace=wrap;rounded=0;" vertex="1" parent="1">
          <mxGeometry x="300" y="90" width="270" height="30" as="geometry" />
        </mxCell>
        <mxCell id="BF623RvJxD7XDJiJDWkn-3" value="&lt;span style=&quot;font-size: 18px;&quot;&gt;Login&lt;/span&gt;" style="ellipse;whiteSpace=wrap;html=1;" vertex="1" parent="1">
          <mxGeometry x="355" y="150" width="160" height="60" as="geometry" />
        </mxCell>
        <mxCell id="BF623RvJxD7XDJiJDWkn-4" value="&lt;span style=&quot;font-size: 18px;&quot;&gt;Check Availaibility&lt;/span&gt;" style="ellipse;whiteSpace=wrap;html=1;" vertex="1" parent="1">
          <mxGeometry x="355" y="230" width="160" height="60" as="geometry" />
        </mxCell>
        <mxCell id="BF623RvJxD7XDJiJDWkn-5" value="&lt;span style=&quot;font-size: 18px;&quot;&gt;Make Payment&lt;/span&gt;" style="ellipse;whiteSpace=wrap;html=1;" vertex="1" parent="1">
          <mxGeometry x="355" y="470" width="160" height="60" as="geometry" />
        </mxCell>
        <mxCell id="BF623RvJxD7XDJiJDWkn-7" value="&lt;span style=&quot;font-size: 18px;&quot;&gt;Full Details&lt;/span&gt;" style="ellipse;whiteSpace=wrap;html=1;" vertex="1" parent="1">
          <mxGeometry x="355" y="390" width="160" height="60" as="geometry" />
        </mxCell>
        <mxCell id="BF623RvJxD7XDJiJDWkn-8" value="&lt;span style=&quot;font-size: 18px;&quot;&gt;Book Ticket&lt;/span&gt;" style="ellipse;whiteSpace=wrap;html=1;" vertex="1" parent="1">
          <mxGeometry x="360" y="310" width="160" height="60" as="geometry" />
        </mxCell>
        <mxCell id="BF623RvJxD7XDJiJDWkn-9" value="&lt;span style=&quot;font-size: 18px;&quot;&gt;Generate Ticket&lt;/span&gt;" style="ellipse;whiteSpace=wrap;html=1;" vertex="1" parent="1">
          <mxGeometry x="355" y="550" width="160" height="60" as="geometry" />
        </mxCell>
        <mxCell id="BF623RvJxD7XDJiJDWkn-10" value="&lt;span style=&quot;font-size: 18px;&quot;&gt;Receive Ticket&lt;/span&gt;" style="ellipse;whiteSpace=wrap;html=1;" vertex="1" parent="1">
          <mxGeometry x="355" y="630" width="160" height="60" as="geometry" />
        </mxCell>
        <mxCell id="BF623RvJxD7XDJiJDWkn-13" value="" style="rounded=0;whiteSpace=wrap;html=1;opacity=50;shadow=0;" vertex="1" parent="1">
          <mxGeometry x="300" y="60" width="295" height="660" as="geometry" />
        </mxCell>
        <mxCell id="BF623RvJxD7XDJiJDWkn-15" value="&lt;font style=&quot;font-size: 18px;&quot;&gt;Customer&lt;br&gt;&lt;/font&gt;" style="shape=umlActor;verticalLabelPosition=bottom;verticalAlign=top;html=1;outlineConnect=0;" vertex="1" parent="1">
          <mxGeometry x="50" y="340" width="40" height="60" as="geometry" />
        </mxCell>
        <mxCell id="BF623RvJxD7XDJiJDWkn-16" value="&lt;font style=&quot;font-size: 18px;&quot;&gt;Bank Payment Portal&lt;/font&gt;" style="shape=umlActor;verticalLabelPosition=bottom;verticalAlign=top;html=1;outlineConnect=0;" vertex="1" parent="1">
          <mxGeometry x="730" y="470" width="30" height="60" as="geometry" />
        </mxCell>
        <mxCell id="BF623RvJxD7XDJiJDWkn-17" value="&lt;font style=&quot;font-size: 18px;&quot;&gt;Ticket Provider&lt;/font&gt;" style="shape=umlActor;verticalLabelPosition=bottom;verticalAlign=top;html=1;outlineConnect=0;" vertex="1" parent="1">
          <mxGeometry x="730" y="140" width="30" height="60" as="geometry" />
        </mxCell>
        <mxCell id="BF623RvJxD7XDJiJDWkn-22" value="" style="endArrow=none;html=1;rounded=0;" edge="1" parent="1">
          <mxGeometry width="50" height="50" relative="1" as="geometry">
            <mxPoint x="100" y="360" as="sourcePoint" />
            <mxPoint x="360" y="190" as="targetPoint" />
          </mxGeometry>
        </mxCell>
        <mxCell id="BF623RvJxD7XDJiJDWkn-29" value="" style="endArrow=none;html=1;rounded=0;" edge="1" parent="1">
          <mxGeometry width="50" height="50" relative="1" as="geometry">
            <mxPoint x="80" y="360" as="sourcePoint" />
            <mxPoint x="360" y="340" as="targetPoint" />
          </mxGeometry>
        </mxCell>
        <mxCell id="BF623RvJxD7XDJiJDWkn-39" value="" style="endArrow=none;html=1;rounded=0;" edge="1" parent="1">
          <mxGeometry width="50" height="50" relative="1" as="geometry">
            <mxPoint x="110" y="360" as="sourcePoint" />
            <mxPoint x="355" y="420" as="targetPoint" />
          </mxGeometry>
        </mxCell>
        <mxCell id="BF623RvJxD7XDJiJDWkn-40" value="" style="endArrow=none;html=1;rounded=0;entryX=0;entryY=0.3333333333333333;entryDx=0;entryDy=0;entryPerimeter=0;" edge="1" parent="1" target="BF623RvJxD7XDJiJDWkn-17">
          <mxGeometry width="50" height="50" relative="1" as="geometry">
            <mxPoint x="520" y="340" as="sourcePoint" />
            <mxPoint x="570" y="290" as="targetPoint" />
          </mxGeometry>
        </mxCell>
        <mxCell id="BF623RvJxD7XDJiJDWkn-41" value="" style="endArrow=none;html=1;rounded=0;entryX=0;entryY=0.3333333333333333;entryDx=0;entryDy=0;entryPerimeter=0;" edge="1" parent="1" target="BF623RvJxD7XDJiJDWkn-17">
          <mxGeometry width="50" height="50" relative="1" as="geometry">
            <mxPoint x="515" y="180" as="sourcePoint" />
            <mxPoint x="720" y="160" as="targetPoint" />
          </mxGeometry>
        </mxCell>
        <mxCell id="BF623RvJxD7XDJiJDWkn-42" value="" style="endArrow=none;html=1;rounded=0;" edge="1" parent="1">
          <mxGeometry width="50" height="50" relative="1" as="geometry">
            <mxPoint x="510" y="575" as="sourcePoint" />
            <mxPoint x="730" y="160" as="targetPoint" />
          </mxGeometry>
        </mxCell>
        <mxCell id="BF623RvJxD7XDJiJDWkn-43" value="" style="endArrow=none;html=1;rounded=0;" edge="1" parent="1">
          <mxGeometry width="50" height="50" relative="1" as="geometry">
            <mxPoint x="110" y="360" as="sourcePoint" />
            <mxPoint x="355" y="660" as="targetPoint" />
          </mxGeometry>
        </mxCell>
        <mxCell id="BF623RvJxD7XDJiJDWkn-46" value="" style="endArrow=none;html=1;rounded=0;" edge="1" parent="1">
          <mxGeometry width="50" height="50" relative="1" as="geometry">
            <mxPoint x="120" y="360" as="sourcePoint" />
            <mxPoint x="355" y="500" as="targetPoint" />
          </mxGeometry>
        </mxCell>
        <mxCell id="BF623RvJxD7XDJiJDWkn-47" value="" style="endArrow=none;html=1;rounded=0;entryX=0;entryY=0.3333333333333333;entryDx=0;entryDy=0;entryPerimeter=0;" edge="1" parent="1" target="BF623RvJxD7XDJiJDWkn-16">
          <mxGeometry width="50" height="50" relative="1" as="geometry">
            <mxPoint x="510" y="430" as="sourcePoint" />
            <mxPoint x="560" y="380" as="targetPoint" />
          </mxGeometry>
        </mxCell>
        <mxCell id="BF623RvJxD7XDJiJDWkn-51" value="" style="shape=flexArrow;endArrow=classic;html=1;rounded=0;width=2;endSize=3.94;" edge="1" parent="1">
          <mxGeometry width="50" height="50" relative="1" as="geometry">
            <mxPoint x="439.75" y="450" as="sourcePoint" />
            <mxPoint x="439.5" y="480" as="targetPoint" />
          </mxGeometry>
        </mxCell>
        <mxCell id="BF623RvJxD7XDJiJDWkn-55" value="" style="shape=flexArrow;endArrow=classic;html=1;rounded=0;width=2;endSize=3.94;" edge="1" parent="1">
          <mxGeometry width="50" height="50" relative="1" as="geometry">
            <mxPoint x="443" y="370" as="sourcePoint" />
            <mxPoint x="442.75" y="400" as="targetPoint" />
          </mxGeometry>
        </mxCell>
      </root>
    </mxGraphModel>
  </diagram>
</mxfile>
